<?xml version="1.0" encoding="iso-8859-1"?>
<!-- Uploaded to: SVG Repo, www.svgrepo.com, Generator: SVG Repo Mixer Tools -->
<svg height="800px" width="800px" version="1.1" id="Layer_1" xmlns="http://www.w3.org/2000/svg" xmlns:xlink="http://www.w3.org/1999/xlink" 
	 viewBox="0 0 503.607 503.607" xml:space="preserve">
<g transform="translate(1 1)">
	<path style="fill:#FFE100;" d="M309.557,29.216c33.574-23.502,79.738-21.823,79.738-21.823c83.934,0,88.131,65.469,88.131,92.328
		s-4.197,92.328-88.131,92.328c0,0-46.164,1.679-79.738-21.823c0,0-33.574-20.984-33.574-35.252V99.721V64.469
		C275.984,51.039,309.557,29.216,309.557,29.216"/>
	<path style="fill:#FFA800;" d="M389.295,7.393c0,0-5.875,0-15.108,0.839c73.862,5.036,78.059,65.469,78.059,91.489
		s-4.197,86.452-78.059,91.489c9.233,0.839,15.108,0.839,15.108,0.839c83.934,0,88.131-65.469,88.131-92.328
		S473.229,7.393,389.295,7.393"/>
	<path style="fill:#FFE100;" d="M477.426,108.115L477.426,108.115v321.469c0,4.197-1.679,7.554-4.197,10.072l0,0
		c-2.518,2.518-6.715,4.197-10.072,4.197h-38.61c-4.197,0-7.554-1.679-10.072-4.197c-2.518-2.518-4.197-6.715-4.197-10.072V190.37
		C467.354,181.138,475.747,134.974,477.426,108.115"/>
	<path style="fill:#FFA800;" d="M477.426,108.115c-0.839,15.108-3.357,36.931-16.787,53.718v267.751
		c0,4.197-1.679,7.554-4.197,10.072l0,0c-2.518,2.518-6.715,4.197-10.072,4.197h16.787c4.197,0,7.554-1.679,10.072-4.197l0,0
		c2.518-2.518,4.197-6.715,4.197-10.072V108.115L477.426,108.115z"/>
	<polygon style="fill:#FFE100;" points="427.066,494.213 443.852,494.213 443.852,443.852 427.066,443.852 	"/>
	<polygon style="fill:#FFA800;" points="443.852,494.213 460.639,494.213 460.639,443.852 443.852,443.852 	"/>
	<path style="fill:#FFE100;" d="M192.049,29.216C158.475,5.715,112.311,7.393,112.311,7.393c-83.934,0-88.131,65.469-88.131,92.328
		s4.197,92.328,88.131,92.328c0,0,46.164,1.679,79.738-21.823c0,0,33.574-20.984,33.574-35.252V99.721V64.469
		C225.623,51.039,192.049,29.216,192.049,29.216"/>
	<path style="fill:#FFFFFF;" d="M112.311,7.393c0,0,5.875,0,15.108,0.839c-73.862,5.036-78.059,65.469-78.059,91.489
		s4.197,86.452,78.059,91.489c-9.233,0.839-15.108,0.839-15.108,0.839c-83.934,0-88.131-65.469-88.131-92.328
		S28.377,7.393,112.311,7.393"/>
	<path style="fill:#FFE100;" d="M24.18,108.115L24.18,108.115v321.469c0,4.197,1.679,7.554,4.197,10.072l0,0
		c2.518,2.518,6.715,4.197,10.072,4.197h38.61c4.197,0,7.554-1.679,10.072-4.197c2.518-2.518,4.197-6.715,4.197-10.072V190.37
		C34.252,181.138,25.859,134.974,24.18,108.115"/>
	<path style="fill:#FFFFFF;" d="M24.18,108.115c0.839,15.108,3.357,36.931,16.787,53.718v267.751c0,4.197,1.679,7.554,4.197,10.072
		l0,0c2.518,2.518,6.715,4.197,10.072,4.197H38.449c-4.197,0-7.554-1.679-10.072-4.197l0,0c-2.518-2.518-4.197-6.715-4.197-10.072
		V108.115L24.18,108.115z"/>
	<polygon style="fill:#FFE100;" points="57.754,494.213 74.541,494.213 74.541,443.852 57.754,443.852 	"/>
	<polygon style="fill:#FFFFFF;" points="40.967,494.213 57.754,494.213 57.754,443.852 40.967,443.852 	"/>
	<path d="M114.83,200.443L114.83,200.443c-1.679,0-2.518,0-2.518,0l0,0c-43.646,0-96.525-17.626-96.525-100.721S67.826-1,112.311-1
		c0,0,0.839,0,2.518,0c11.751,0,51.2,1.679,82.256,23.502c8.393,5.036,36.931,25.18,36.931,41.967v70.505
		c0,16.787-28.538,36.931-37.77,41.967C166.029,198.764,126.58,200.443,114.83,200.443z M114.83,15.787c-1.679,0-1.679,0-2.518,0
		c-53.718,0-79.738,27.698-79.738,83.934s26.02,83.934,79.738,83.934c4.197,0,44.485,0.839,74.702-20.144
		c15.948-10.072,30.216-23.502,30.216-28.538V64.469c0-5.036-14.269-18.466-29.377-27.698
		C160.154,17.466,124.902,15.787,114.83,15.787z"/>
	<path d="M77.059,452.246h-38.61c-5.875,0-11.751-2.518-15.948-6.715s-6.715-10.072-6.715-15.948V108.115
		c0-5.036,3.357-8.393,8.393-8.393c4.197,0,8.393,3.357,8.393,8.393c1.679,42.807,21.823,67.987,59.593,73.862
		c4.197,0.839,6.715,4.197,6.715,8.393v239.213c0,5.875-2.518,11.751-6.715,15.948C88.81,449.728,82.934,452.246,77.059,452.246z
		 M32.574,165.19v264.393c0,1.679,0.839,3.357,1.679,4.197s2.518,1.679,4.197,1.679h38.61c1.679,0,3.357-0.839,4.197-1.679
		c0.839-0.839,1.679-2.518,1.679-4.197V197.085C61.111,192.049,43.485,181.138,32.574,165.19z"/>
	<path d="M74.541,502.607H40.967c-5.036,0-8.393-3.357-8.393-8.393v-50.361c0-5.036,3.357-8.393,8.393-8.393h33.574
		c5.036,0,8.393,3.357,8.393,8.393v50.361C82.934,499.249,79.577,502.607,74.541,502.607z M49.361,485.82h16.787v-33.574H49.361
		V485.82z"/>
	<path d="M386.777,200.443c-11.751,0-51.2-1.679-82.256-23.502c-8.393-5.036-36.931-25.18-36.931-41.967V64.469
		c0-16.787,28.538-36.931,37.77-41.967C335.577,0.679,375.026-1,386.777-1c1.679,0,2.518,0,2.518,0l0,0
		c43.646,0,96.525,17.626,96.525,100.721s-52.039,100.721-96.525,100.721C389.295,200.443,388.456,200.443,386.777,200.443z
		 M386.777,15.787c-10.072,0-45.325,1.679-72.184,20.144c-15.948,10.072-30.216,23.502-30.216,28.538v70.505
		c0,5.036,14.269,18.466,29.377,27.698c26.859,19.305,62.951,20.984,73.023,20.984c1.679,0,1.679,0,2.518,0
		c53.718,0,79.738-27.698,79.738-83.934s-26.02-83.934-79.738-83.934C388.456,15.787,388.456,15.787,386.777,15.787z"/>
	<path d="M463.157,452.246h-38.61c-5.875,0-11.751-2.518-15.948-6.715s-6.715-10.072-6.715-15.948V190.37
		c0-4.197,3.357-7.554,6.715-8.393c37.77-5.875,57.915-31.056,59.593-73.862c0-4.197,4.197-8.393,8.393-8.393
		c5.036,0,8.393,3.357,8.393,8.393v321.469c0,5.875-2.518,11.751-6.715,15.948C474.908,449.728,469.033,452.246,463.157,452.246z
		 M418.672,197.085v232.498c0,1.679,0.839,3.357,1.679,4.197c0.839,0.839,2.518,1.679,4.197,1.679h38.61
		c1.679,0,3.357-0.839,4.197-1.679c0.839-0.839,1.679-2.518,1.679-4.197V165.19C458.121,181.138,440.495,192.049,418.672,197.085z"
		/>
	<path d="M460.639,502.607h-33.574c-5.036,0-8.393-3.357-8.393-8.393v-50.361c0-5.036,3.357-8.393,8.393-8.393h33.574
		c5.036,0,8.393,3.357,8.393,8.393v50.361C469.033,499.249,465.675,502.607,460.639,502.607z M435.459,485.82h16.787v-33.574
		h-16.787V485.82z"/>
	<path d="M427.066,108.115h-33.574c-5.036,0-8.393-3.357-8.393-8.393s3.357-8.393,8.393-8.393h33.574
		c5.036,0,8.393,3.357,8.393,8.393S432.102,108.115,427.066,108.115z"/>
	<path d="M116.508,108.115H82.934c-5.036,0-8.393-3.357-8.393-8.393s3.357-8.393,8.393-8.393h33.574
		c5.036,0,8.393,3.357,8.393,8.393S121.544,108.115,116.508,108.115z"/>
</g>
</svg>